<?xml version="1.0" encoding="UTF-8" standalone="no"?>
<!-- Created with Inkscape (http://www.inkscape.org/) -->

<svg
   xmlns:dc="http://purl.org/dc/elements/1.1/"
   xmlns:cc="http://creativecommons.org/ns#"
   xmlns:rdf="http://www.w3.org/1999/02/22-rdf-syntax-ns#"
   xmlns:svg="http://www.w3.org/2000/svg"
   xmlns="http://www.w3.org/2000/svg"
   xmlns:sodipodi="http://sodipodi.sourceforge.net/DTD/sodipodi-0.dtd"
   xmlns:inkscape="http://www.inkscape.org/namespaces/inkscape"
   width="295.02344"
   height="240.63768"
   id="svg2"
   version="1.1"
   inkscape:version="0.48.5 r10040"
   sodipodi:docname="logo.svg">
  <defs
     id="defs4" />
  <sodipodi:namedview
     id="base"
     pagecolor="#ffffff"
     bordercolor="#666666"
     borderopacity="1.0"
     inkscape:pageopacity="0.0"
     inkscape:pageshadow="2"
     inkscape:zoom="0.70710678"
     inkscape:cx="212.30943"
     inkscape:cy="40.402434"
     inkscape:document-units="px"
     inkscape:current-layer="layer1"
     showgrid="false"
     inkscape:window-width="1313"
     inkscape:window-height="744"
     inkscape:window-x="53"
     inkscape:window-y="24"
     inkscape:window-maximized="1"
     inkscape:snap-object-midpoints="false"
     inkscape:snap-global="true"
     fit-margin-top="0"
     fit-margin-left="0"
     fit-margin-right="0"
     fit-margin-bottom="0" />
  <metadata
     id="metadata7">
    <rdf:RDF>
      <cc:Work
         rdf:about="">
        <dc:format>image/svg+xml</dc:format>
        <dc:type
           rdf:resource="http://purl.org/dc/dcmitype/StillImage" />
        <dc:title />
      </cc:Work>
    </rdf:RDF>
  </metadata>
  <g
     inkscape:label="Layer 1"
     inkscape:groupmode="layer"
     id="layer1"
     transform="translate(-204.86305,-490.4039)">
    <flowRoot
       xml:space="preserve"
       id="flowRoot4069"
       style="font-size:72px;font-style:normal;font-variant:normal;font-weight:normal;font-stretch:normal;line-height:125%;letter-spacing:0px;word-spacing:0px;fill:#000000;fill-opacity:1;stroke:none;font-family:Smoolthan;-inkscape-font-specification:Smoolthan"
       transform="translate(0,308.2677)"><flowRegion
         id="flowRegion4071"><rect
           id="rect4073"
           width="725.71429"
           height="188.57143"
           x="241.42857"
           y="442.66592"
           style="font-size:72px" /></flowRegion><flowPara
         id="flowPara4075" /></flowRoot>    <text
       xml:space="preserve"
       style="font-size:144px;font-style:normal;font-variant:normal;font-weight:normal;font-stretch:normal;line-height:125%;letter-spacing:0px;word-spacing:0px;fill:#000000;fill-opacity:1;stroke:none;font-family:Smoolthan;-inkscape-font-specification:Smoolthan"
       x="392.85715"
       y="522.66589"
       id="text4077"
       sodipodi:linespacing="125%"
       transform="translate(0,308.2677)"><tspan
         sodipodi:role="line"
         id="tspan4079"
         x="392.85715"
         y="522.66589" /></text>
    <g
       id="g2990"
       transform="translate(11.313713,-31.112694)">
      <path
         id="path4067"
         transform="translate(0,308.2677)"
         d="m 340.03125,213.59375 c -1.24631,0.008 -2.49811,0.0219 -3.75,0.0625 -80.12064,2.59802 -144.91052,71.75436 -142.3125,151.875 l 100.78125,-0.0937 0,-77.65625 -23.40625,0 c -1.50001,9e-5 -2.79688,-0.54679 -3.875,-1.625 -1.07813,-1.03116 -1.625,-2.32803 -1.625,-3.875 l 0,-4.90625 63.9375,0 c 0.13254,0 0.24576,0.0233 0.375,0.0312 l 0,-0.0312 5.78125,0 c 3.56249,1e-4 5.71874,1.34385 6.46875,4.0625 l 9.125,32.0625 c 0.98435,3.42193 2.35935,5.62506 4.09375,6.5625 1.35935,0.75006 4.01559,1.12505 8,1.125 l 8.78125,0 c 3.93745,5e-5 6.60932,-0.37494 7.96875,-1.125 1.73432,-0.93744 3.09369,-3.14057 4.125,-6.5625 l 9.15625,-32.0625 c 0.70306,-2.71865 2.84368,-4.0624 6.40625,-4.0625 l 5.75,0 -9.96875,36.5 c -2.01569,7.50005 -4.35944,12.31255 -7.03125,14.46875 -2.53131,1.92192 -7.54693,2.96879 -15,3.15625 l 0,33.84375 114.34375,-0.125 c 0.0937,-3.08068 0.0999,-6.16951 0,-9.25 -2.55742,-78.86876 -69.60759,-142.87195 -148.125,-142.375 z m -33.6875,74.1875 0,77.625 55.875,-0.0625 0,-33.84375 c -7.59378,-0.0468 -12.56252,-0.98433 -14.90625,-2.8125 -2.71877,-2.06245 -5.09376,-6.98432 -7.15625,-14.8125 L 333,287.78125 l -26.65625,0 z"
         style="fill:#000000;stroke:#000000;stroke-width:0.66823256px;stroke-linecap:butt;stroke-linejoin:miter;stroke-opacity:1"
         inkscape:connector-curvature="0" />
      <path
         inkscape:connector-curvature="0"
         id="text4096"
         d="m 265.84626,762.15428 0,-4.90625 c 0,-1.54697 0.54687,-2.84384 1.625,-3.875 1.07812,-1.07821 2.37499,-1.62509 3.875,-1.625 l 23.40625,0 0,-77.875 11.59375,0 0,77.875 26.65625,0 7.15625,-26.09375 c 2.06249,-7.82818 4.43748,-12.75005 7.15625,-14.8125 2.34373,-1.82817 7.31247,-2.76567 14.90625,-2.8125 l 0,-34.15625 11.59375,0 0,34.15625 c 7.45307,0.18746 12.46869,1.23433 15,3.15625 2.67181,2.1562 5.01556,6.9687 7.03125,14.46875 l 9.96875,36.5 -5.75,0 c -3.56257,-10e-5 -5.70319,-1.34385 -6.40625,-4.0625 l -9.15625,-32.0625 c -1.03131,-3.42193 -2.39068,-5.62506 -4.125,-6.5625 -1.35943,-0.75006 -4.0313,-1.12505 -7.96875,-1.125 l -8.78125,0 c -3.98441,-5e-5 -6.64065,0.37494 -8,1.125 -1.7344,0.93744 -3.1094,3.14057 -4.09375,6.5625 l -9.125,32.0625 c -0.75001,2.71865 -2.90626,4.0624 -6.46875,4.0625 l -5.78125,0 0,-0.0312 c -0.12924,0.008 -0.24246,0.0312 -0.375,0.0312 l -63.9375,0 z"
         style="font-size:144px;font-style:normal;font-variant:normal;font-weight:normal;font-stretch:normal;line-height:125%;letter-spacing:0px;word-spacing:0px;fill:#000000;fill-opacity:1;stroke:none;font-family:Smoolthan;-inkscape-font-specification:Smoolthan" />
    </g>
  </g>
</svg>
